<svg aria-hidden="true" style="position: absolute; width: 0; height: 0; overflow: hidden;" version="1.1" xmlns="http://www.w3.org/2000/svg" xmlns:xlink="http://www.w3.org/1999/xlink">
<defs>
<symbol id="icon-in" viewBox="0 0 34 32">
<path fill="#707070" style="fill: var(--color1, #707070)" d="M0 3.765c0-2.079 1.686-3.765 3.765-3.765 0.998 0 1.956 0.397 2.662 1.103s1.103 1.664 1.103 2.662c0 2.079-1.686 3.765-3.765 3.765s-3.765-1.686-3.765-3.765zM32.941 19.595c0.065-4.075-2.716-7.647-6.682-8.584-2.659-0.572-5.429 0.178-7.435 2.014v-0.791c0-0.52-0.421-0.941-0.941-0.941h-4.706c-0.52 0-0.941 0.421-0.941 0.941v18.823c0 0.52 0.421 0.941 0.941 0.941h4.706c0.52 0 0.941-0.421 0.941-0.941v-10.616c-0.046-1.89 1.271-3.541 3.125-3.915 1.104-0.191 2.235 0.12 3.086 0.848s1.335 1.797 1.318 2.917v10.767c0 0.52 0.421 0.941 0.941 0.941h4.706c0.52 0 0.941-0.421 0.941-0.941v-11.463zM7.529 12.235v18.823c0 0.52-0.421 0.941-0.941 0.941h-4.706c-0.52 0-0.941-0.421-0.941-0.941v-18.823c0-0.52 0.421-0.941 0.941-0.941h4.706c0.52 0 0.941 0.421 0.941 0.941z"></path>
</symbol>
<symbol id="icon-cross-bg" viewBox="0 0 32 32">
<path fill="#d8d8d8" style="fill: var(--color2, #d8d8d8)" d="M0 16c0-8.837 7.163-16 16-16 4.243 0 8.313 1.686 11.314 4.686s4.686 7.070 4.686 11.314c0 8.837-7.163 16-16 16s-16-7.163-16-16zM21.186 19.536c0-0.212-0.088-0.415-0.242-0.56l-2.96-2.976 2.96-2.976c0.155-0.145 0.242-0.348 0.242-0.56s-0.088-0.415-0.242-0.56l-0.848-0.848c-0.145-0.155-0.348-0.242-0.56-0.242s-0.415 0.088-0.56 0.242l-2.976 2.96-2.976-2.96c-0.145-0.155-0.348-0.242-0.56-0.242s-0.415 0.088-0.56 0.242l-0.848 0.848c-0.155 0.145-0.242 0.348-0.242 0.56s0.088 0.415 0.242 0.56l2.96 2.976-2.96 2.976c-0.155 0.145-0.242 0.348-0.242 0.56s0.088 0.415 0.242 0.56l0.848 0.848c0.145 0.155 0.348 0.242 0.56 0.242s0.415-0.088 0.56-0.242l2.976-2.96 2.976 2.96c0.145 0.155 0.348 0.242 0.56 0.242s0.415-0.088 0.56-0.242l0.848-0.848c0.155-0.145 0.242-0.348 0.242-0.56z"></path>
</symbol>
<symbol id="icon-arrow-return" viewBox="0 0 37 32">
<path fill="#707070" style="fill: var(--color1, #707070)" d="M18.286 9.143c11.886 0 18.286 8.686 18.286 22.857-3.429-5.486-6.171-9.143-18.286-9.143v9.143l-18.286-16 18.286-16v9.143z"></path>
</symbol>
<symbol id="icon-return" viewBox="0 0 32 32">
<path d="M18.031 2.102c7.663 0 13.898 6.235 13.898 13.898 0 7.64-6.197 13.859-13.828 13.896v-2.010c6.523-0.038 11.82-5.355 11.82-11.887 0-6.556-5.335-11.891-11.891-11.891-5.934 0-10.85 4.375-11.734 10.064l-0.021 0.133 4.795-2.398 0.898 1.797-6.383 3.193c-0.144 0.071-0.298 0.105-0.449 0.105-0.297-0-0.587-0.133-0.783-0.377l-4.256-5.318 1.568-1.256 2.707 3.383 0.029-0.146c1.265-6.369 6.893-11.187 13.629-11.188z"></path>
</symbol>
<symbol id="icon-lock" viewBox="0 0 32 32">
<path d="M28.154 12.148h-2.439v-2.386c-0-5.391-4.356-9.762-9.715-9.762s-9.727 4.371-9.727 9.762v2.386h-2.427c-0.891 0-1.62 0.734-1.62 1.631v16.591c0 0.897 0.729 1.631 1.62 1.631h24.308c0.891 0 1.62-0.734 1.62-1.631v-16.591c0-0.897-0.729-1.631-1.621-1.631zM7.488 9.762c0-2.36 0.974-4.491 2.511-6.038 1.538-1.546 3.655-2.501 6.001-2.501s4.463 0.955 6.001 2.501c1.537 1.547 2.498 3.678 2.498 6.038v2.386h-17.011v-2.386zM28.154 30.777h-24.308c-0.22 0-0.405-0.187-0.405-0.408v-16.591c0-0.221 0.186-0.408 0.405-0.408h24.308c0.219 0 0.405 0.186 0.405 0.408v16.591c0 0.221-0.186 0.408-0.405 0.408z"></path>
<path d="M16 18.547c-1.567 0-2.836 1.277-2.836 2.853 0 1.366 0.954 2.506 2.228 2.786v2.921c0 0.338 0.272 0.611 0.608 0.611s0.608-0.274 0.608-0.611v-2.921c1.274-0.28 2.228-1.421 2.228-2.786-0-1.576-1.269-2.853-2.836-2.853zM16 23.031c-0.894 0-1.62-0.732-1.62-1.631s0.727-1.631 1.62-1.631c0.894 0 1.62 0.732 1.62 1.631s-0.727 1.631-1.62 1.631z"></path>
</symbol>
<symbol id="icon-box" viewBox="0 0 32 32">
<path d="M15.989 32.001c-0.105 0-0.212-0.025-0.308-0.076l-15.323-8c-0.22-0.115-0.359-0.343-0.359-0.591v-15c0-0.231 0.12-0.445 0.316-0.567s0.443-0.132 0.648-0.029l15.323 7.667c0.225 0.113 0.368 0.344 0.368 0.596v15.333c0 0.233-0.121 0.449-0.321 0.571-0.104 0.064-0.224 0.096-0.344 0.096zM1.333 22.93l13.989 7.304v-13.821l-13.989-7v13.517z"></path>
<path d="M16.010 32c-0.12 0-0.24-0.032-0.345-0.096-0.199-0.121-0.321-0.337-0.321-0.571v-15.333c0-0.252 0.143-0.483 0.368-0.596l15.323-7.667c0.204-0.104 0.452-0.093 0.648 0.029 0.197 0.121 0.317 0.336 0.317 0.567v15c0 0.248-0.139 0.476-0.359 0.591l-15.323 8c-0.096 0.051-0.203 0.076-0.308 0.076zM16.677 16.412v13.821l13.989-7.304v-13.517l-13.989 7zM31.333 23.333v0z"></path>
<path d="M0.666 9.001c-0.245 0-0.48-0.135-0.597-0.368-0.165-0.329-0.031-0.729 0.299-0.895l15.344-7.667c0.188-0.093 0.409-0.093 0.596 0l15.323 7.667c0.329 0.165 0.463 0.565 0.299 0.895-0.165 0.329-0.564 0.461-0.895 0.299l-15.024-7.519-15.045 7.517c-0.096 0.048-0.197 0.071-0.299 0.071z"></path>
<path d="M24 20c-0.368 0-0.667-0.299-0.667-0.667v-6.921l-14.955-7.483c-0.329-0.164-0.463-0.565-0.297-0.895s0.565-0.461 0.895-0.299l15.323 7.667c0.225 0.115 0.368 0.345 0.368 0.597v7.333c0 0.368-0.299 0.667-0.667 0.667z"></path>
</symbol>
<symbol id="icon-accepted" viewBox="0 0 32 32">
<path d="M20 0.43l0.111 0.012c0.036 0.007 0.073 0.017 0.107 0.031 0.069 0.029 0.131 0.072 0.184 0.125l4 4c0.053 0.053 0.096 0.115 0.125 0.184s0.043 0.144 0.043 0.219v12.959c1.492 0.143 2.879 0.83 3.894 1.934 1.030 1.12 1.604 2.586 1.606 4.107l-0.027 0.568c-0.125 1.315-0.677 2.559-1.578 3.539-1.015 1.104-2.403 1.789-3.894 1.932v0.961c0 0.151-0.061 0.295-0.168 0.402s-0.251 0.168-0.402 0.168h-21c-0.151 0-0.295-0.061-0.402-0.168s-0.168-0.251-0.168-0.402v-30c0-0.151 0.061-0.295 0.168-0.402s0.251-0.168 0.402-0.168h17zM3.57 30.43h19.859v-0.391c-1.492-0.141-2.881-0.825-3.896-1.93-1.030-1.12-1.602-2.587-1.602-4.109s0.571-2.989 1.602-4.109c1.016-1.104 2.404-1.79 3.896-1.932v-12.389h-3.43c-0.151 0-0.295-0.061-0.402-0.168s-0.168-0.251-0.168-0.402v-3.43h-15.859v28.859zM25.887 19.445c-0.901-0.373-1.892-0.471-2.848-0.281s-1.836 0.66-2.525 1.35c-0.689 0.69-1.159 1.569-1.35 2.525s-0.092 1.947 0.281 2.848c0.373 0.901 1.006 1.671 1.816 2.213s1.763 0.83 2.738 0.83l0.486-0.023c1.128-0.113 2.189-0.613 2.998-1.422 0.924-0.924 1.444-2.177 1.445-3.484l-0.014-0.365c-0.063-0.846-0.343-1.664-0.816-2.373-0.542-0.811-1.312-1.443-2.213-1.816zM20.57 4.43h2.055l-2.055-2.055v2.055z"></path>
<path d="M27.5 21.93c0.075 0 0.15 0.014 0.219 0.043s0.131 0.072 0.184 0.125c0.053 0.053 0.096 0.115 0.125 0.184s0.043 0.144 0.043 0.219c0 0.075-0.014 0.15-0.043 0.219s-0.072 0.131-0.125 0.184l-3.5 3.5c-0.090 0.090-0.206 0.148-0.332 0.164s-0.254-0.013-0.363-0.078l-2.5-1.5c-0.064-0.038-0.12-0.089-0.164-0.148s-0.078-0.129-0.096-0.201c-0.018-0.073-0.023-0.149-0.012-0.223s0.038-0.145 0.076-0.209c0.038-0.064 0.089-0.12 0.148-0.164s0.129-0.078 0.201-0.096c0.073-0.018 0.149-0.023 0.223-0.012s0.145 0.038 0.209 0.076l2.117 1.269 3.187-3.184c0.053-0.053 0.115-0.096 0.184-0.125s0.144-0.043 0.219-0.043z"></path>
</symbol>
<symbol id="icon-arrow-right" viewBox="0 0 19 32">
<path d="M0.237 3.074c-0.151-0.15-0.237-0.355-0.237-0.568s0.085-0.418 0.237-0.568l1.696-1.696c0.145-0.155 0.348-0.242 0.56-0.242s0.415 0.088 0.56 0.242l14.702 14.702c0.225 0.225 0.352 0.53 0.352 0.848v0.416c-0 0.318-0.127 0.623-0.352 0.848l-14.702 14.702c-0.145 0.155-0.348 0.242-0.56 0.242s-0.415-0.088-0.56-0.242l-1.696-1.696c-0.151-0.15-0.237-0.355-0.237-0.568s0.085-0.418 0.237-0.568l12.926-12.926-12.926-12.926z"></path>
</symbol>
<symbol id="icon-exit" viewBox="0 0 32 32">
<path fill="#000" style="fill: var(--color3, #000)" d="M4.211 27.789h9.263c0.465 0 0.842 0.377 0.842 0.842v1.684c0 0.465-0.377 0.842-0.842 0.842h-9.263c-1.86 0-3.368-1.508-3.368-3.368v-23.579c0-1.86 1.508-3.368 3.368-3.368h9.263c0.465 0 0.842 0.377 0.842 0.842v1.684c0 0.465-0.377 0.842-0.842 0.842h-9.263v23.579zM22.131 6.147l8.657 8.64c0.234 0.239 0.367 0.558 0.371 0.893v0.64c-0 0.335-0.134 0.656-0.371 0.893l-8.657 8.64c-0.158 0.16-0.373 0.249-0.598 0.249s-0.44-0.090-0.598-0.249l-1.196-1.179c-0.16-0.158-0.249-0.373-0.249-0.598s0.090-0.44 0.249-0.598l5.811-5.794h-17.128c-0.465 0-0.842-0.377-0.842-0.842v-1.684c0-0.465 0.377-0.842 0.842-0.842h17.128l-5.811-5.794c-0.158-0.155-0.248-0.368-0.248-0.589s0.089-0.434 0.248-0.589l1.196-1.196c0.158-0.159 0.373-0.249 0.598-0.249s0.44 0.090 0.598 0.249z"></path>
<path fill="#fff" style="fill: var(--color4, #fff)" d="M4.211 27.789h-0.842v0.842h0.842v-0.842zM4.211 4.211v-0.842h-0.842v0.842h0.842zM30.787 14.787l0.601-0.589-0.007-0.007-0.595 0.596zM22.131 6.147l-0.598 0.593 0.003 0.003 0.595-0.596zM31.158 15.68h0.842v-0.010l-0.842 0.010zM31.158 16.32v0zM30.787 17.213v0zM22.131 25.853l-0.595-0.596-0.003 0.003 0.598 0.593zM20.935 25.853l0.598-0.593-0.007-0.007-0.591 0.6zM19.739 24.674l-0.593 0.598 0.002 0.002 0.591-0.6zM19.739 23.478l0.593 0.598 0.002-0.002-0.595-0.596zM25.549 17.684l0.595 0.596 1.443-1.438h-2.037v0.842zM25.549 14.316v0.842h2.037l-1.443-1.438-0.595 0.596zM19.739 8.522l0.595-0.596-0.005-0.005-0.589 0.601zM19.739 7.343l0.589 0.602 0.006-0.006-0.596-0.595zM20.935 6.147l0.596 0.595 0.002-0.002-0.598-0.593zM13.474 26.947h-9.263v1.684h9.263v-1.684zM15.158 28.632c0-0.93-0.754-1.684-1.684-1.684v1.684h1.684zM15.158 30.316v-1.684h-1.684v1.684h1.684zM13.474 32c0.93 0 1.684-0.754 1.684-1.684h-1.684v1.684zM4.211 32h9.263v-1.684h-9.263v1.684zM0 27.789c0 2.325 1.885 4.211 4.211 4.211v-1.684c-1.395 0-2.526-1.131-2.526-2.526h-1.684zM0 4.211v23.579h1.684v-23.579h-1.684zM4.211 0c-2.325 0-4.211 1.885-4.211 4.211h1.684c0-1.395 1.131-2.526 2.526-2.526v-1.684zM13.474 0h-9.263v1.684h9.263v-1.684zM15.158 1.684c0-0.93-0.754-1.684-1.684-1.684v1.684h1.684zM15.158 3.368v-1.684h-1.684v1.684h1.684zM13.474 5.053c0.93 0 1.684-0.754 1.684-1.684h-1.684v1.684zM4.211 5.053h9.263v-1.684h-9.263v1.684zM5.053 27.789v-23.579h-1.684v23.579h1.684zM31.382 14.191l-8.657-8.64-1.19 1.192 8.657 8.64 1.19-1.192zM32 15.67c-0.006-0.551-0.225-1.079-0.611-1.472l-1.203 1.179c0.082 0.084 0.128 0.196 0.13 0.313l1.684-0.020zM32 16.32v-0.64h-1.684v0.64h1.684zM31.382 17.808c0.395-0.394 0.617-0.93 0.618-1.488l-1.684-0.001c-0 0.112-0.044 0.219-0.123 0.298l1.19 1.192zM22.725 26.449l8.657-8.64-1.19-1.192-8.657 8.64 1.19 1.192zM21.533 26.944c0.449 0 0.88-0.179 1.196-0.498l-1.196-1.186v1.684zM20.337 26.446c0.316 0.319 0.747 0.498 1.196 0.498v-1.684l-1.196 1.186zM19.148 25.273l1.196 1.179 1.182-1.2-1.196-1.179-1.182 1.2zM18.648 24.076c0 0.449 0.179 0.88 0.498 1.196l1.186-1.196h-1.684zM19.146 22.88c-0.319 0.316-0.498 0.747-0.498 1.196h1.684l-1.186-1.196zM24.955 17.088l-5.811 5.794 1.189 1.193 5.811-5.794-1.189-1.193zM8.421 18.526h17.128v-1.684h-17.128v1.684zM6.737 16.842c0 0.93 0.754 1.684 1.684 1.684v-1.684h-1.684zM6.737 15.158v1.684h1.684v-1.684h-1.684zM8.421 13.474c-0.93 0-1.684 0.754-1.684 1.684h1.684v-1.684zM25.549 13.474h-17.128v1.684h17.128v-1.684zM19.144 9.118l5.811 5.794 1.189-1.193-5.811-5.794-1.189 1.193zM18.649 7.933c0 0.448 0.18 0.877 0.501 1.191l1.179-1.203c0.003 0.003 0.005 0.008 0.005 0.012h-1.684zM19.15 6.742c-0.32 0.314-0.501 0.743-0.501 1.191h1.684c0 0.005-0.002 0.009-0.005 0.012l-1.179-1.203zM20.339 5.552l-1.196 1.196 1.191 1.191 1.196-1.196-1.191-1.191zM21.533 5.056c-0.449 0-0.88 0.179-1.196 0.498l1.196 1.186v-1.684zM22.728 5.554c-0.316-0.319-0.747-0.498-1.196-0.498v1.684l1.196-1.186z"></path>
</symbol>
<symbol id="icon-person" viewBox="0 0 32 32">
<path fill="#000" style="fill: var(--color3, #000)" d="M23.621 8.381c0 4.208-3.412 7.619-7.621 7.619s-7.621-3.411-7.621-7.619 3.412-7.619 7.621-7.619c4.209 0 7.621 3.411 7.621 7.619zM20.573 8.381c0-2.525-2.047-4.571-4.573-4.571s-4.573 2.047-4.573 4.571 2.047 4.571 4.573 4.571c2.526 0 4.573-2.047 4.573-4.571zM31.075 29.029c0.238 0.472 0.214 1.033-0.062 1.483s-0.766 0.725-1.294 0.727h-27.437c-0.528-0.002-1.018-0.277-1.294-0.727s-0.3-1.011-0.062-1.483l2.881-5.775c1.292-2.578 3.929-4.206 6.814-4.206h10.761c2.884 0 5.521 1.628 6.813 4.206l2.881 5.775zM6.534 24.625l-1.783 3.566h22.498l-1.783-3.566c-0.773-1.548-2.354-2.527-4.085-2.53h-10.761c-1.731 0.002-3.312 0.981-4.085 2.53z"></path>
<path fill="#fff" style="fill: var(--color4, #fff)" d="M28.194 23.253l0.682-0.34-0.001-0.001-0.681 0.341zM31.075 29.029l-0.682 0.34 0.001 0.003 0.68-0.343zM21.381 19.048v0zM10.619 19.048v-0.762h-0l0 0.762zM3.806 23.253l-0.681-0.341-0.001 0.001 0.682 0.34zM0.925 29.029l0.68 0.343 0.001-0.003-0.682-0.34zM0.987 30.511v0zM2.282 31.238l-0.002 0.762h0.002v-0.762zM29.718 31.238v0.762h0.002l-0.002-0.762zM4.751 28.19l-0.681-0.341-0.552 1.103h1.233v-0.762zM6.534 24.625v0zM27.249 28.19v0.762h1.233l-0.551-1.103-0.681 0.341zM25.466 24.625v0zM21.381 22.095l0.001-0.762h-0.001v0.762zM10.619 22.095v-0.762h-0.001l0.001 0.762zM16 16.762c4.63 0 8.383-3.752 8.383-8.381h-1.524c0 3.787-3.071 6.857-6.859 6.857v1.524zM7.617 8.381c0 4.629 3.754 8.381 8.383 8.381v-1.524c-3.789 0-6.859-3.070-6.859-6.857h-1.524zM16 0c-4.63 0-8.383 3.752-8.383 8.381h1.524c0-3.787 3.071-6.857 6.859-6.857v-1.524zM24.383 8.381c0-4.629-3.753-8.381-8.383-8.381v1.524c3.789 0 6.859 3.070 6.859 6.857h1.524zM16 4.571c2.105 0 3.811 1.706 3.811 3.81h1.524c0-2.946-2.389-5.333-5.335-5.333v1.524zM12.189 8.381c0-2.104 1.706-3.81 3.811-3.81v-1.524c-2.946 0-5.335 2.388-5.335 5.333h1.524zM16 12.19c-2.105 0-3.811-1.706-3.811-3.81h-1.524c0 2.946 2.389 5.333 5.335 5.333v-1.524zM19.811 8.381c0 2.104-1.706 3.81-3.811 3.81v1.524c2.946 0 5.335-2.388 5.335-5.333h-1.524zM27.512 23.593l2.881 5.775 1.363-0.68-2.881-5.775-1.363 0.68zM21.381 19.81c2.596 0 4.969 1.465 6.132 3.785l1.362-0.683c-1.421-2.836-4.322-4.626-7.495-4.626v1.524zM10.619 19.81h10.761v-1.524h-10.761v1.524zM4.487 23.595c1.163-2.32 3.536-3.785 6.132-3.785l-0-1.524c-3.172 0-6.073 1.79-7.495 4.626l1.362 0.683zM1.607 29.369l2.881-5.775-1.364-0.68-2.881 5.775 1.364 0.68zM1.636 30.113c-0.138-0.225-0.15-0.505-0.031-0.741l-1.361-0.686c-0.357 0.707-0.321 1.549 0.093 2.224l1.299-0.797zM2.284 30.476c-0.264-0.001-0.509-0.138-0.647-0.363l-1.299 0.797c0.415 0.675 1.149 1.088 1.941 1.090l0.005-1.524zM29.718 30.476h-27.437v1.524h27.437v-1.524zM30.364 30.113c-0.138 0.225-0.383 0.363-0.647 0.363l0.005 1.524c0.792-0.002 1.527-0.415 1.942-1.090l-1.299-0.797zM30.395 29.371c0.119 0.236 0.107 0.516-0.031 0.741l1.299 0.797c0.415-0.675 0.45-1.517 0.093-2.224l-1.361 0.686zM5.432 28.531l1.783-3.566-1.363-0.682-1.783 3.566 1.363 0.682zM27.249 27.429h-22.498v1.524h22.498v-1.524zM24.784 24.965l1.783 3.566 1.363-0.682-1.783-3.566-1.363 0.682zM21.38 22.857c1.443 0.002 2.76 0.818 3.404 2.108l1.363-0.681c-0.902-1.806-2.747-2.948-4.766-2.951l-0.002 1.524zM10.619 22.857h10.761v-1.524h-10.761v1.524zM7.216 24.965c0.644-1.29 1.962-2.106 3.404-2.108l-0.002-1.524c-2.019 0.003-3.864 1.145-4.766 2.951l1.363 0.681z"></path>
</symbol>
<symbol id="icon-paypal" viewBox="0 0 26 32">
<path d="M21.827 7.844c-0.738 4.677-4.752 8.119-9.463 8.116h-5.090c-0.589-0.007-1.093 0.425-1.181 1.011l-1.213 7.603c-0.088 0.586-0.592 1.017-1.181 1.010h-2.888c-0.238 0.009-0.466-0.091-0.622-0.272s-0.22-0.423-0.176-0.658l3.75-23.306c0.126-0.784 0.805-1.358 1.596-1.347h11.17c1.619 0.002 3.158 0.71 4.218 1.941s1.535 2.864 1.304 4.475l-0.223 1.428zM25.323 14.26l0.223-1.428c0.205-1.455-0.174-2.932-1.053-4.106-1.136 5.83-6.218 10.037-12.128 10.041h-2.713c-0.507 0.007-0.955 0.335-1.117 0.818l-1.803 11.485c-0.043 0.232 0.020 0.471 0.171 0.652s0.376 0.283 0.611 0.279h2.888c0.59 0.001 1.096-0.426 1.197-1.010l1.197-7.603c0.094-0.582 0.594-1.010 1.181-1.011h1.819c4.735 0.035 8.785-3.415 9.527-8.116z"></path>
</symbol>
<symbol id="Vector" viewBox="0 0 28 32">
<path stroke-linejoin="miter" stroke-linecap="butt" stroke-miterlimit="4" stroke-width="6" d="M2.121 2.488l23.633 23.633M2.121 25.754l23.633-23.633"></path>
</symbol>
<symbol id="icon-arrow" viewBox="0 0 80 32">
<path fill="#707070" style="fill: var(--color1, #707070)" d="M0 15.972v-4c0-1.105 0.896-2 2.001-2h62.019v-8c0.011-0.8 0.499-1.517 1.239-1.821s1.59-0.139 2.162 0.421l12.004 12c0.767 0.791 0.767 2.049 0 2.84l-12.004 12c-0.577 0.565-1.437 0.728-2.181 0.413s-1.225-1.046-1.22-1.853v-8h-62.019c-1.105 0-2.001-0.895-2.001-2z"></path>
</symbol>
<symbol id="icon-twitter" viewBox="0 0 40 32">
<path fill="#707070" style="fill: var(--color1, #707070)" d="M37.592 4.638c-0.971 1.296-2.146 2.426-3.477 3.347 0 0.338 0 0.677 0 1.034 0.011 6.147-2.445 12.041-6.815 16.36s-10.291 6.704-16.435 6.619c-3.551 0.012-7.058-0.799-10.243-2.369-0.172-0.075-0.283-0.245-0.282-0.433v-0.207c0-0.27 0.219-0.489 0.489-0.489 3.491-0.115 6.858-1.326 9.623-3.46-3.16-0.064-6.003-1.936-7.311-4.814-0.066-0.157-0.046-0.338 0.054-0.476s0.264-0.214 0.434-0.201c0.96 0.097 1.93 0.007 2.857-0.263-3.488-0.724-6.109-3.62-6.484-7.164-0.013-0.17 0.063-0.335 0.201-0.435s0.318-0.12 0.476-0.054c0.936 0.413 1.947 0.631 2.97 0.639-3.057-2.006-4.377-5.822-3.214-9.289 0.12-0.337 0.408-0.586 0.759-0.655s0.712 0.051 0.951 0.317c4.125 4.39 9.792 7.006 15.807 7.296-0.154-0.615-0.23-1.247-0.226-1.88 0.056-3.323 2.113-6.284 5.206-7.496s6.613-0.435 8.909 1.967c1.566-0.298 3.079-0.824 4.492-1.561 0.103-0.065 0.235-0.065 0.338 0 0.065 0.104 0.065 0.235 0 0.338-0.685 1.568-1.841 2.882-3.308 3.761 1.285-0.149 2.547-0.452 3.759-0.903 0.102-0.069 0.236-0.069 0.338 0 0.085 0.039 0.149 0.114 0.175 0.205s0.010 0.188-0.043 0.266z"></path>
</symbol>
<symbol id="icon-instagram" viewBox="0 0 32 32">
<path fill="#707070" style="fill: var(--color1, #707070)" d="M23.111 0h-14.222c-4.909 0-8.889 3.98-8.889 8.889v14.222c0 4.909 3.98 8.889 8.889 8.889h14.222c4.909 0 8.889-3.98 8.889-8.889v-14.222c0-4.909-3.98-8.889-8.889-8.889zM28.889 23.111c-0.010 3.187-2.591 5.768-5.778 5.778h-14.222c-3.187-0.010-5.768-2.591-5.778-5.778v-14.222c0.010-3.187 2.591-5.768 5.778-5.778h14.222c3.187 0.010 5.768 2.591 5.778 5.778v14.222zM24.444 9.333c0.982 0 1.778-0.796 1.778-1.778s-0.796-1.778-1.778-1.778c-0.982 0-1.778 0.796-1.778 1.778s0.796 1.778 1.778 1.778zM16 8c-4.418 0-8 3.582-8 8s3.582 8 8 8c4.418 0 8-3.582 8-8 0.005-2.123-0.837-4.161-2.338-5.662s-3.539-2.343-5.662-2.338zM11.111 16c0 2.7 2.189 4.889 4.889 4.889s4.889-2.189 4.889-4.889c0-2.7-2.189-4.889-4.889-4.889s-4.889 2.189-4.889 4.889z"></path>
</symbol>
<symbol id="icon-facebook" viewBox="0 0 19 32">
<path d="M16.889 5.333h-5.333c-0.982 0-1.778 0.796-1.778 1.778v5.333h7.111c0.202-0.005 0.394 0.090 0.514 0.252s0.154 0.374 0.090 0.566l-1.316 3.911c-0.121 0.359-0.457 0.602-0.836 0.604h-5.564v13.333c0 0.491-0.398 0.889-0.889 0.889h-4.444c-0.491 0-0.889-0.398-0.889-0.889v-13.333h-2.667c-0.491 0-0.889-0.398-0.889-0.889v-3.556c0-0.491 0.398-0.889 0.889-0.889h2.667v-5.333c0-3.927 3.184-7.111 7.111-7.111h6.222c0.491 0 0.889 0.398 0.889 0.889v3.556c0 0.491-0.398 0.889-0.889 0.889z"></path>
</symbol>
<symbol id="icon-search" viewBox="0 0 32 32">
<path fill="#707070" style="fill: var(--color1, #707070)" d="M24.662 22.143l7.11 7.12c0.318 0.353 0.302 0.894-0.035 1.228l-1.244 1.246c-0.167 0.169-0.394 0.263-0.631 0.263s-0.464-0.095-0.631-0.263l-7.11-7.12c-0.197-0.197-0.375-0.412-0.533-0.641l-1.333-1.78c-2.206 1.764-4.945 2.724-7.767 2.723-5.816 0.020-10.871-3.998-12.171-9.675s1.502-11.499 6.746-14.018c5.244-2.519 11.532-1.064 15.14 3.505s3.574 11.031-0.082 15.561l1.777 1.228c0.278 0.178 0.534 0.387 0.764 0.623zM3.599 12.46c0 4.915 3.979 8.9 8.887 8.9 2.357 0 4.618-0.938 6.284-2.607s2.603-3.933 2.603-6.293c0-4.915-3.979-8.9-8.887-8.9s-8.887 3.984-8.887 8.9z"></path>
</symbol>
<symbol id="icon-burger" viewBox="0 0 42 32">
<path stroke-linejoin="miter" stroke-linecap="butt" stroke-miterlimit="4" stroke-width="0.4" d="M1.45 3.949h37.486c0.69 0 1.249-0.84 1.249-1.875s-0.561-1.875-1.25-1.875h-37.486c-0.69 0-1.249 0.84-1.249 1.875s0.561 1.875 1.25 1.875z"></path>
<path stroke-linejoin="miter" stroke-linecap="butt" stroke-miterlimit="4" stroke-width="0.4" d="M38.936 13.324h-37.486c-0.69 0-1.249 0.84-1.249 1.875s0.561 1.875 1.25 1.875h37.486c0.69 0 1.249-0.84 1.249-1.875s-0.56-1.875-1.25-1.875z"></path>
<path stroke-linejoin="miter" stroke-linecap="butt" stroke-miterlimit="4" stroke-width="0.4" d="M38.935 26.449h-24.991c-0.69 0-1.249 0.84-1.249 1.875s0.561 1.875 1.25 1.875l24.991 0c0.69 0 1.249-0.84 1.249-1.875s-0.56-1.875-1.25-1.875z"></path>
</symbol>
<symbol id="icon-shopping-cart" viewBox="0 0 32 32">
<path d="M10.31 20.688h0.001c0.001 0 0.002-0 0.004-0h16.997c0.419 0 0.786-0.277 0.901-0.68l3.75-13.125c0.081-0.283 0.024-0.587-0.153-0.822s-0.454-0.373-0.748-0.373h-22.915l-0.67-3.016c-0.095-0.429-0.476-0.734-0.915-0.734h-5.625c-0.518 0-0.938 0.42-0.938 0.938s0.42 0.938 0.938 0.938h4.873c0.119 0.534 3.207 14.432 3.385 15.232-0.996 0.433-1.695 1.427-1.695 2.581 0 1.551 1.262 2.812 2.813 2.812h17c0.518 0 0.937-0.42 0.937-0.937s-0.42-0.938-0.937-0.938h-17c-0.517 0-0.938-0.421-0.938-0.937s0.419-0.936 0.935-0.937zM29.82 7.563l-3.214 11.25h-15.541l-2.5-11.25h21.255z"></path>
<path d="M9.375 27.25c0 1.551 1.262 2.813 2.813 2.813s2.813-1.262 2.813-2.813c0-1.551-1.262-2.812-2.813-2.812s-2.813 1.262-2.813 2.812zM12.188 26.313c0.517 0 0.938 0.421 0.938 0.937s-0.421 0.938-0.938 0.938-0.938-0.421-0.938-0.938c0-0.517 0.421-0.937 0.938-0.937z"></path>
<path d="M22.625 27.25c0 1.551 1.262 2.813 2.812 2.813s2.812-1.262 2.812-2.813c0-1.551-1.262-2.812-2.812-2.812s-2.812 1.262-2.812 2.812zM25.438 26.313c0.517 0 0.937 0.421 0.937 0.937s-0.421 0.938-0.937 0.938-0.938-0.421-0.938-0.938c0-0.517 0.421-0.937 0.938-0.937z"></path>
</symbol>
<symbol id="icon-logo" viewBox="0 0 155 32">
<path fill="#a18a68" style="fill: var(--color5, #a18a68)" d="M14.391 5.181c-0.137-0.055-0.302-0.151-0.493-0.288s-0.466-0.26-0.822-0.37c-0.356-0.137-0.809-0.247-1.357-0.329s-1.247-0.096-2.097-0.041v-4.153c1.206 0.027 2.426 0.164 3.66 0.411 1.261 0.219 2.275 0.576 3.043 1.069-0.164 0.356-0.356 0.754-0.576 1.192-0.219 0.411-0.425 0.809-0.617 1.192-0.192 0.356-0.356 0.658-0.493 0.905s-0.219 0.384-0.247 0.411zM0.206 8.47c0-1.206 0.206-2.289 0.617-3.248s0.959-1.796 1.645-2.508c0.713-0.74 1.535-1.316 2.467-1.727 0.959-0.439 1.96-0.726 3.002-0.864v4.317c-0.877 0.302-1.604 0.836-2.179 1.604-0.576 0.74-0.864 1.494-0.864 2.261 0 1.069 0.288 1.933 0.864 2.59s1.302 1.234 2.179 1.727v4.687c-0.905-0.439-1.809-0.905-2.714-1.398-0.905-0.521-1.727-1.124-2.467-1.809s-1.357-1.48-1.85-2.385c-0.466-0.905-0.699-1.987-0.699-3.248zM0.864 25.247c0.384 0.219 0.864 0.439 1.439 0.658 0.603 0.192 1.22 0.384 1.85 0.576 0.63 0.164 1.261 0.301 1.891 0.411s1.22 0.165 1.768 0.165h0.123v3.906h-0.082c-0.658 0-1.343-0.041-2.056-0.123-0.685-0.055-1.384-0.164-2.097-0.329s-1.398-0.384-2.056-0.658c-0.63-0.301-1.179-0.658-1.645-1.069l0.864-3.536zM9.622 13.446c0.905 0.411 1.823 0.85 2.755 1.316 0.959 0.466 1.823 1.042 2.59 1.727 0.768 0.658 1.398 1.467 1.892 2.426s0.74 2.152 0.74 3.577c0 0.987-0.192 1.946-0.576 2.878-0.356 0.932-0.877 1.782-1.562 2.549-0.658 0.74-1.48 1.371-2.467 1.892s-2.111 0.863-3.372 1.028v-3.947c2.248-0.548 3.372-2.042 3.372-4.482 0-0.959-0.315-1.754-0.946-2.385s-1.439-1.22-2.426-1.768v-4.811z"></path>
<path fill="#000" style="fill: var(--color3, #000)" d="M45.888 0.493v30.304h-4.934v-13.651h-11.431v-3.372h11.431v-13.281h4.934zM22.821 0.493h5.016v30.304h-5.016v-30.304zM52.919 15.502c0-2.44 0.288-4.592 0.864-6.456 0.603-1.891 1.425-3.481 2.467-4.77 1.069-1.316 2.316-2.316 3.742-3.002 1.453-0.713 3.029-1.124 4.729-1.234v4.112c-0.932 0.11-1.809 0.397-2.632 0.864s-1.535 1.151-2.138 2.056-1.083 2.056-1.439 3.454c-0.356 1.398-0.548 3.056-0.576 4.975 0.027 1.946 0.219 3.618 0.576 5.016 0.356 1.371 0.836 2.522 1.439 3.454 0.631 0.932 1.357 1.645 2.179 2.138 0.822 0.466 1.686 0.74 2.59 0.822v4.071c-1.672-0.11-3.235-0.507-4.688-1.192-1.453-0.713-2.714-1.713-3.783-3.002-1.042-1.316-1.864-2.919-2.467-4.811-0.576-1.891-0.864-4.057-0.864-6.497zM66.365 0.041c1.672 0.082 3.221 0.48 4.646 1.192 1.453 0.713 2.7 1.727 3.742 3.043 1.069 1.288 1.905 2.878 2.508 4.77 0.603 1.864 0.905 4.016 0.905 6.456s-0.301 4.605-0.905 6.497c-0.603 1.892-1.439 3.495-2.508 4.811-1.042 1.288-2.275 2.289-3.701 3.002-1.426 0.685-2.988 1.083-4.688 1.192v-4.071c0.932-0.11 1.809-0.397 2.632-0.863 0.822-0.493 1.535-1.192 2.138-2.097 0.603-0.932 1.083-2.083 1.439-3.454 0.356-1.398 0.548-3.070 0.576-5.016-0.027-1.946-0.219-3.605-0.576-4.975-0.356-1.398-0.85-2.549-1.48-3.454-0.603-0.932-1.316-1.631-2.138-2.097-0.822-0.493-1.686-0.781-2.59-0.863v-4.071zM85.074 0.493h4.934v30.304h-4.934v-30.304zM93.791 0.493c1.288 0 2.563 0.206 3.824 0.617s2.385 1.028 3.372 1.85c1.014 0.822 1.823 1.823 2.426 3.002 0.63 1.151 0.946 2.453 0.946 3.906 0 1.535-0.26 2.933-0.781 4.194-0.521 1.234-1.247 2.275-2.179 3.125s-2.056 1.508-3.372 1.974c-1.316 0.466-2.769 0.699-4.359 0.699h-1.974v-3.618h2.837c0.603 0 1.192-0.096 1.768-0.288 0.603-0.219 1.151-0.562 1.645-1.028s0.891-1.11 1.192-1.933c0.301-0.85 0.452-1.891 0.452-3.125 0-0.493-0.069-1.055-0.206-1.686-0.137-0.658-0.425-1.275-0.864-1.85-0.411-0.603-1.001-1.096-1.768-1.48-0.767-0.411-1.782-0.617-3.043-0.617h-2.015v-3.742h2.097zM109.951 0.493h4.934v30.304h-4.934v-30.304zM118.668 0.493c1.288 0 2.563 0.206 3.824 0.617s2.385 1.028 3.372 1.85c1.014 0.822 1.823 1.823 2.426 3.002 0.63 1.151 0.946 2.453 0.946 3.906 0 1.535-0.26 2.933-0.781 4.194-0.521 1.234-1.247 2.275-2.179 3.125s-2.056 1.508-3.372 1.974c-1.316 0.466-2.769 0.699-4.359 0.699h-1.974v-3.618h2.837c0.603 0 1.192-0.096 1.768-0.288 0.603-0.219 1.151-0.562 1.645-1.028s0.891-1.11 1.192-1.933c0.301-0.85 0.452-1.891 0.452-3.125 0-0.493-0.069-1.055-0.206-1.686-0.137-0.658-0.425-1.275-0.864-1.85-0.411-0.603-1.001-1.096-1.768-1.48-0.767-0.411-1.782-0.617-3.043-0.617h-2.015v-3.742h2.097zM134.992 0.493h5.016v30.304h-5.016v-30.304zM152.673 17.146h-10.979v-3.372h10.979v3.372zM141.694 27.056h12.253v3.742h-12.253v-3.742zM153.947 0.493v3.742h-12.253v-3.742h12.253z"></path>
</symbol>
</defs>
</svg>
